<svg xmlns="http://www.w3.org/2000/svg" width="37.887" height="38.439" viewBox="0 0 37.887 38.439">
  <defs>
    <style>
      .cls-1 {
        fill: #1582c8;
      }
    </style>
  </defs>
  <g id="Group_23" data-name="Group 23" transform="translate(-152.113 -118.984)">
    <path id="Path_43" data-name="Path 43" class="cls-1" d="M170.319,157.423h-17.59a.614.614,0,1,1,0-1.227h17.59a.614.614,0,0,1,0,1.227Z"/>
    <g id="Group_22" data-name="Group 22">
      <g id="Group_21" data-name="Group 21">
        <g id="Group_20" data-name="Group 20">
          <path id="Path_44" data-name="Path 44" class="cls-1" d="M160.77,126.334a3.675,3.675,0,1,1,3.675-3.675A3.679,3.679,0,0,1,160.77,126.334Zm0-6.122a2.448,2.448,0,1,0,2.448,2.447A2.45,2.45,0,0,0,160.77,120.212Z"/>
        </g>
      </g>
      <path id="Path_45" data-name="Path 45" class="cls-1" d="M163.1,157.423h-4.649a1.572,1.572,0,0,1-1.549-1.464l-.892-12.059c-1.36-.313-3.074-1.355-3.2-2.76l-.69-9.263a2.231,2.231,0,0,1,0-.229,4,4,0,0,1,3.835-4.011h21.2a.614.614,0,0,1,.614.614,3.6,3.6,0,0,1-3.6,3.6H166.44l-1.8,24.111A1.572,1.572,0,0,1,163.1,157.423Zm-7.13-28.56a2.776,2.776,0,0,0-2.624,2.809c0,.043,0,.078,0,.128l.688,9.24c.064.715,1.441,1.555,2.482,1.709.041.006.084.011.125.015a.613.613,0,0,1,.557.565l.927,12.54a.36.36,0,0,0,.326.327H163.1a.354.354,0,0,0,.325-.327l1.839-24.68a.614.614,0,0,1,.612-.568h8.295a2.374,2.374,0,0,0,2.291-1.758Z"/>
    </g>
    <path id="Path_46" data-name="Path 46" class="cls-1" d="M160.768,157.028a.614.614,0,0,1-.614-.614v-13.92a.613.613,0,0,1,1.227,0v13.92A.613.613,0,0,1,160.768,157.028Z"/>
    <path id="Path_47" data-name="Path 47" class="cls-1" d="M156.58,143.988a.614.614,0,0,1-.611-.568l-.773-10.456a.613.613,0,1,1,1.223-.09l.774,10.455a.614.614,0,0,1-.567.657Z"/>
    <path id="Path_48" data-name="Path 48" class="cls-1" d="M176.675,157.423h-6.356a.614.614,0,0,1-.614-.613V146.063a.614.614,0,0,1,.614-.614h6.356a.614.614,0,0,1,.613.614V156.81A.614.614,0,0,1,176.675,157.423Zm-5.743-1.227h5.129v-9.52h-5.129Z"/>
    <path id="Path_49" data-name="Path 49" class="cls-1" d="M183.03,157.423h-6.355a.614.614,0,0,1-.614-.613V137.156a.614.614,0,0,1,.614-.613h6.355a.614.614,0,0,1,.614.613V156.81A.614.614,0,0,1,183.03,157.423Zm-5.742-1.227h5.129V137.77h-5.129Z"/>
    <path id="Path_50" data-name="Path 50" class="cls-1" d="M189.386,157.423H183.03a.614.614,0,0,1-.613-.613V128.25a.614.614,0,0,1,.613-.614h6.356a.614.614,0,0,1,.614.614v28.56A.614.614,0,0,1,189.386,157.423Zm-5.742-1.227h5.129V128.863h-5.129Z"/>
  </g>
</svg>
