<svg width="25" height="24" viewBox="0 0 25 24" fill="none" xmlns="http://www.w3.org/2000/svg">
<path d="M16.6029 0.923828C16.6029 0.414062 17.1279 0 17.7769 0C18.426 0 18.9509 0.414062 18.9509 0.923828V4.9707C18.9509 5.48047 18.426 5.89453 17.7769 5.89453C17.1279 5.89453 16.6029 5.48047 16.6029 4.9707V0.923828ZM8.78571 15.5723C8.98439 15.5773 9.18135 15.5358 9.35949 15.4512C9.5067 15.3784 9.62473 15.261 9.69521 15.1172C9.77282 14.9502 9.81036 14.7687 9.80508 14.5859C9.80731 14.4494 9.77223 14.3147 9.70335 14.1953C9.63242 14.0668 9.52337 13.9615 9.39001 13.8926C9.22264 13.8088 9.03538 13.7684 8.84675 13.7754C8.7011 13.7815 8.55777 13.8126 8.42354 13.8672C8.29325 13.9053 8.17408 13.9722 8.07561 14.0625C8.02981 14.1065 7.99376 14.1589 7.96963 14.2167C7.9455 14.2744 7.9338 14.3362 7.93522 14.3984H5.73981C5.72584 13.9458 5.87616 13.5025 6.16506 13.1445C6.45973 12.7956 6.84401 12.5263 7.28006 12.3633C7.75488 12.1783 8.26314 12.0854 8.77554 12.0898C9.35112 12.0798 9.92347 12.1746 10.4623 12.3691C10.9156 12.5301 11.3102 12.8145 11.5976 13.1875C11.8801 13.5826 12.0227 14.0544 12.0046 14.5332C12.0118 14.8277 11.9418 15.1191 11.8011 15.3809C11.6509 15.6469 11.4427 15.8787 11.1907 16.0605C10.9184 16.2601 10.612 16.4127 10.2853 16.5117C9.92196 16.6213 9.54294 16.6754 9.16213 16.6719H7.76024V15.5644L8.78571 15.5723ZM7.76838 16.123H9.15602C9.56265 16.1189 9.96815 16.1648 10.3626 16.2598C10.7013 16.3421 11.0218 16.4824 11.3087 16.6738C11.5682 16.8535 11.7778 17.0916 11.9191 17.3672C12.0694 17.6721 12.1433 18.0065 12.1348 18.3437C12.1486 18.8343 11.9918 19.3154 11.6892 19.7109C11.3759 20.0986 10.9579 20.3965 10.4806 20.5723C9.93187 20.776 9.34754 20.8767 8.75926 20.8691C8.38195 20.8679 8.00642 20.8193 7.64223 20.7246C7.27992 20.6328 6.93609 20.4836 6.62489 20.2832C6.2987 20.0727 6.034 19.7856 5.85594 19.4492C5.67788 19.1128 5.59238 18.7384 5.60756 18.3613H7.81721C7.81823 18.5028 7.86755 18.64 7.9576 18.7519C8.05895 18.8783 8.19098 18.9789 8.34216 19.0449C8.49877 19.1199 8.67173 19.1581 8.84675 19.1562C9.14454 19.1735 9.43728 19.0766 9.66062 18.8867C9.75016 18.8103 9.82211 18.7169 9.87186 18.6123C9.92161 18.5077 9.94807 18.3943 9.94955 18.2793C9.96097 18.0592 9.91333 17.8399 9.81119 17.6426C9.72504 17.4885 9.58537 17.3682 9.41646 17.3027C9.21661 17.2293 9.00371 17.1941 8.78978 17.1992H7.77245V16.1152L7.76838 16.123ZM19.4026 17.2852C19.4249 17.9746 19.2858 18.66 18.9957 19.291C18.7624 19.7849 18.3768 20.198 17.8909 20.4746C17.3944 20.7421 16.8323 20.877 16.2631 20.8652C15.6942 20.8745 15.1328 20.7398 14.6354 20.4746C14.1472 20.199 13.7593 19.7857 13.5245 19.291C13.2344 18.66 13.0953 17.9746 13.1175 17.2852V15.6777C13.096 14.9886 13.2343 14.3034 13.5224 13.6719C13.7549 13.177 14.1407 12.763 14.6273 12.4863C15.1276 12.228 15.6869 12.0928 16.255 12.0928C16.8231 12.0928 17.3824 12.228 17.8827 12.4863C18.3692 12.7642 18.756 13.1778 18.9916 13.6719C19.2832 14.3038 19.4223 14.9908 19.3986 15.6816V17.2812L19.4026 17.2852ZM17.1889 15.4004C17.2007 15.0758 17.1623 14.7513 17.075 14.4375C17.0246 14.2435 16.9105 14.0702 16.7494 13.9434C16.6068 13.8431 16.4337 13.7909 16.257 13.7949C16.0786 13.7917 15.9037 13.8437 15.7585 13.9434C15.5976 14.0699 15.484 14.2434 15.435 14.4375C15.3496 14.7516 15.3119 15.0759 15.3231 15.4004V17.5488C15.3113 17.8781 15.3504 18.2071 15.4391 18.5254C15.4894 18.7189 15.6036 18.8915 15.7646 19.0176C15.9143 19.1119 16.0903 19.1603 16.2692 19.1562C16.4424 19.16 16.6125 19.1115 16.7555 19.0176C16.9158 18.8916 17.0287 18.7188 17.077 18.5254C17.162 18.2065 17.1997 17.8778 17.1889 17.5488V15.4004ZM6.02466 0.923828C6.02466 0.414062 6.54961 0 7.19867 0C7.84773 0 8.37268 0.414062 8.37268 0.923828V4.9707C8.37268 5.48047 7.84773 5.89453 7.19867 5.89453C6.54961 5.89453 6.02466 5.48047 6.02466 4.9707V0.923828ZM1.54839 8.25976H23.4618V4.42383C23.4601 4.27242 23.3974 4.12753 23.2868 4.01953C23.2316 3.96628 23.166 3.92403 23.0937 3.89521C23.0214 3.86638 22.9439 3.85155 22.8656 3.85156H20.9571C20.597 3.85156 20.306 3.3418 20.306 2.99609C20.306 2.65039 20.5949 2.14844 20.9571 2.14844H23.1037C23.3529 2.14849 23.5996 2.1958 23.8297 2.28763C24.0598 2.37947 24.2688 2.51403 24.4445 2.68359C24.7884 3.01367 25.002 3.69922 25.002 4.20117V22.1855C25.0004 22.6684 24.7999 23.131 24.4442 23.4724C24.0886 23.8138 23.6067 24.0063 23.1037 24.0078H1.89835C1.39361 24.0063 0.910159 23.8124 0.554207 23.4689C0.198256 23.1254 -0.00107672 22.6603 4.37471e-06 22.1758V4.19336C4.37471e-06 3.69141 0.213645 3.00586 0.557504 2.67578C0.733951 2.50763 0.943189 2.37451 1.17326 2.28402C1.40333 2.19354 1.64972 2.14747 1.89835 2.14844H4.19143C4.55156 2.14844 4.84252 2.6582 4.84252 3.00391C4.84252 3.34961 4.55156 3.85937 4.19143 3.85937H2.13844C1.98072 3.86102 1.82978 3.92122 1.71727 4.02734C1.6618 4.08035 1.61778 4.14335 1.58775 4.21273C1.55772 4.28211 1.54227 4.35651 1.54228 4.43164V8.25976H1.54839ZM23.4638 9.74218H1.54228V22.1758C1.544 22.3272 1.60671 22.4721 1.71727 22.5801C1.77248 22.6333 1.83812 22.6756 1.9104 22.7044C1.98267 22.7332 2.06017 22.7481 2.13844 22.748H22.8616C23.0193 22.7464 23.1702 22.6862 23.2827 22.5801C23.3382 22.5271 23.3822 22.4641 23.4123 22.3947C23.4423 22.3253 23.4577 22.2509 23.4577 22.1758V9.74218H23.4638ZM10.2588 3.85156C9.90071 3.85156 9.60975 3.3418 9.60975 2.99609C9.60975 2.65039 9.90071 2.14844 10.2588 2.14844H14.6313C14.9915 2.14844 15.2824 2.6582 15.2824 3.00391C15.2824 3.34961 14.9915 3.85937 14.6313 3.85937L10.2588 3.85156Z" fill="#585858"/>
</svg>
