<?xml version="1.0" encoding="iso-8859-1"?>
<!-- Generator: Adobe Illustrator 19.0.0, SVG Export Plug-In . SVG Version: 6.00 Build 0)  -->
<svg version="1.1" id="Layer_1" xmlns="http://www.w3.org/2000/svg" xmlns:xlink="http://www.w3.org/1999/xlink" x="0px" y="0px"
	 viewBox="0 0 512 512" style="enable-background:new 0 0 512 512;" xml:space="preserve">
<g>
	<g>
		<path stroke="#3a4354" d="M493.736,208.078c-5.55-12.12-17.635-19.953-30.788-19.953h-70.664v-0.534c0-6.31-3.547-11.803-8.75-14.6
			c11.049-12.244,17.301-28.175,17.301-45.258c0-37.426-30.448-67.875-67.875-67.875c-8.952,0-16.948,2.142-16.954,2.143
			l-154.782,41.649c-18.837,4.235-32.957,21.087-32.957,41.184c0,9.887,3.426,18.985,9.14,26.188h-1.123
			c-9.136,0-16.568,7.432-16.568,16.568v0.534H49.052c-13.154,0-25.239,7.833-30.788,19.954C6.315,234.177,0,265.532,0,298.756
			c0,33.223,6.316,64.579,18.264,90.677c5.55,12.12,17.635,19.953,30.788,19.953h49.892l-3.817,26.722h-1.599
			c-4.427,0-8.017,3.589-8.017,8.017c0,4.427,3.589,8.017,8.017,8.017h59.858c4.427,0,8.017-3.589,8.017-8.017
			c0-4.427-3.589-8.017-8.017-8.017h-1.598l-3.818-26.722h216.059l-3.817,26.722h-1.598c-4.427,0-8.017,3.589-8.017,8.017
			c0,4.427,3.589,8.017,8.017,8.017h59.858c4.427,0,8.017-3.589,8.017-8.017c0-4.427-3.589-8.017-8.017-8.017h-1.598l-3.818-26.722
			h49.893c13.154,0,25.239-7.833,30.788-19.954C505.685,363.334,512,331.979,512,298.756
			C512,265.532,505.684,234.176,493.736,208.078z M332.96,75.891c28.585,0,51.841,23.256,51.841,51.841
			c0,15.396-6.675,29.559-18.171,39.326v-47.877c0-9.136-7.432-16.568-16.568-16.568h-34.205c-9.136,0-16.568,7.432-16.568,16.568
			v47.877c-11.496-9.768-18.171-23.929-18.171-39.326C281.119,99.147,304.375,75.891,332.96,75.891z M315.324,136.818v-17.637
			c0-0.295,0.239-0.534,0.534-0.534h34.205c0.295,0,0.534,0.239,0.534,0.534v17.637H315.324z M350.597,152.852v18.171h-35.273
			v-18.171H350.597z M277.246,89.032c-7.655,10.987-12.161,24.324-12.161,38.7c0,16.182,5.613,31.329,15.596,43.29h-77.111
			c5.714-7.203,9.14-16.301,9.14-26.188c-0.001-13.845-6.701-26.155-17.029-33.859L277.246,89.032z M170.489,118.647
			c14.44,0,26.188,11.748,26.188,26.188s-11.748,26.188-26.188,26.188s-26.188-11.748-26.188-26.188
			S156.049,118.647,170.489,118.647z M135.749,187.591c0-0.295,0.239-0.534,0.534-0.534h239.432c0.295,0,0.534,0.239,0.534,0.534
			v17.102c0,0.295-0.239,0.534-0.534,0.534H136.284c-0.295,0-0.534-0.239-0.534-0.534V187.591z M111.323,436.109l6.195-43.366
			c0.037-0.262,0.265-0.458,0.529-0.458h10.821c0.264,0,0.492,0.198,0.529,0.458l6.193,43.366H111.323z M376.409,436.109
			l6.195-43.366c0.037-0.262,0.265-0.458,0.529-0.458h10.821c0.264,0,0.492,0.198,0.529,0.458l6.193,43.366H376.409z
			 M479.158,382.758c-2.946,6.436-9.309,10.595-16.21,10.595h-2.255V264.551c0-4.427-3.589-8.017-8.017-8.017
			c-4.427,0-8.017,3.589-8.017,8.017v128.802h-33.895l-0.412-2.877c-1.159-8.11-8.209-14.225-16.401-14.225h-10.821
			c-8.192,0-15.242,6.115-16.401,14.225l-0.41,2.877H145.68l-0.411-2.877c-1.159-8.11-8.209-14.225-16.401-14.225h-10.821
			c-8.192,0-15.242,6.115-16.401,14.225l-0.41,2.877H67.34V264.551c0-4.427-3.589-8.017-8.017-8.017s-8.017,3.589-8.017,8.017
			v128.802h-2.254c-6.901,0-13.264-4.159-16.21-10.595c-10.84-23.675-16.809-53.508-16.809-84.002s5.969-60.326,16.808-84.002
			c2.946-6.436,9.309-10.595,16.21-10.595h2.255v26.188c0,4.427,3.589,8.017,8.017,8.017s8.017-3.589,8.017-8.017v-26.188h52.376
			v0.534c0,9.136,7.432,16.568,16.568,16.568h17.637v0.534c0,4.427,3.589,8.017,8.017,8.017s8.017-3.589,8.017-8.017v-0.534h172.092
			v0.534c0,4.427,3.589,8.017,8.017,8.017s8.017-3.589,8.017-8.017v-0.534h17.637c9.136,0,16.568-7.432,16.568-16.568v-0.534h52.376
			v26.188c0,4.427,3.589,8.017,8.017,8.017c4.427,0,8.017-3.589,8.017-8.017v-26.188h2.254c6.901,0,13.264,4.159,16.21,10.595
			c10.84,23.675,16.809,53.508,16.809,84.002S489.998,359.082,479.158,382.758z"/>
	</g>
</g>
<g>
</g>
<g>
</g>
<g>
</g>
<g>
</g>
<g>
</g>
<g>
</g>
<g>
</g>
<g>
</g>
<g>
</g>
<g>
</g>
<g>
</g>
<g>
</g>
<g>
</g>
<g>
</g>
<g>
</g>
</svg>
