<svg id="svg" xmlns="http://www.w3.org/2000/svg" xmlns:xlink="http://www.w3.org/1999/xlink" width="400" height="409.7560975609756" viewBox="0, 0, 400,409.7560975609756"><g id="svgg"><path id="path0" d="M184.669 18.656 C 146.436 27.954,131.567 74.094,157.343 103.451 L 161.382 108.051 158.391 120.919 C 154.634 137.084,155.196 137.380,146.481 114.634 C 142.443 104.094,137.781 94.000,136.120 92.202 C 124.141 79.233,103.586 84.913,100.868 101.943 C 100.270 105.693,109.426 147.021,115.034 165.881 C 115.454 167.295,113.049 169.563,107.795 172.706 C 47.816 208.580,36.194 294.638,84.273 346.876 C 134.793 401.768,230.378 392.226,266.659 328.669 L 269.686 323.366 279.094 323.356 C 287.829 323.346,290.666 324.630,286.963 326.919 C 280.100 331.160,278.106 351.740,283.461 363.066 C 299.369 396.716,350.394 385.399,350.169 348.270 C 350.122 340.537,346.225 328.911,343.015 326.927 C 340.313 325.257,341.330 323.545,345.296 323.089 L 349.129 322.648 349.528 307.335 C 350.002 289.120,349.569 288.502,336.319 288.502 C 326.145 288.502,326.803 290.387,329.511 268.990 C 331.741 251.372,328.505 243.672,322.109 251.378 C 320.913 252.819,316.457 280.916,316.387 287.456 C 316.381 288.031,311.672 288.502,305.923 288.502 C 293.663 288.502,294.589 291.297,297.647 263.511 C 300.638 236.341,301.118 237.779,288.758 236.934 L 278.562 236.237 274.935 227.178 C 272.940 222.195,269.459 215.108,267.199 211.428 C 261.912 202.821,260.875 203.145,285.829 205.606 C 323.951 209.365,323.931 209.353,323.153 228.848 C 322.457 246.276,330.564 251.407,333.500 235.397 C 338.993 205.444,331.502 199.238,284.286 194.628 L 252.242 191.499 246.288 185.656 L 240.335 179.813 233.544 146.004 L 226.752 112.195 233.406 105.374 C 269.509 68.362,234.731 6.482,184.669 18.656 M213.534 31.734 C 239.511 43.225,245.697 77.721,225.417 98.001 C 202.181 121.238,162.473 108.896,155.949 76.410 C 149.555 44.573,183.327 18.372,213.534 31.734 M127.242 98.641 C 129.412 101.039,151.297 155.988,150.315 156.572 C 148.965 157.374,126.065 162.708,125.648 162.318 C 124.767 161.494,111.570 108.074,111.534 105.188 C 111.435 97.330,122.051 92.905,127.242 98.641 M183.927 119.088 C 193.315 121.757,199.314 121.817,208.867 119.339 C 214.201 117.955,216.386 117.859,216.739 118.991 C 217.428 121.197,227.178 169.177,227.178 170.361 C 227.178 170.897,225.139 170.182,222.648 168.774 C 220.157 167.366,214.512 164.763,210.105 162.990 L 202.091 159.766 202.091 150.380 C 202.091 138.796,201.293 136.585,197.112 136.585 C 191.323 136.585,190.941 139.691,190.941 186.668 L 190.941 231.359 177.601 231.359 L 164.262 231.359 164.806 184.321 C 165.267 144.446,165.748 135.620,167.962 126.370 C 170.876 114.191,169.273 114.922,183.927 119.088 M153.310 174.189 C 153.310 180.628,153.032 181.193,149.477 181.980 C 120.719 188.347,87.289 216.023,99.284 223.534 C 101.311 224.802,103.240 223.545,111.131 215.814 C 123.776 203.426,135.333 196.612,149.477 193.205 L 153.310 192.281 153.310 225.105 C 153.310 268.518,157.530 277.352,178.269 277.352 C 197.346 277.352,202.091 267.732,202.091 229.049 C 202.091 195.699,201.559 196.951,212.615 204.290 C 276.868 246.939,245.983 347.577,168.641 347.577 C 114.529 347.577,75.854 294.172,93.719 244.120 C 97.632 233.159,97.524 230.584,93.096 229.178 C 85.247 226.687,76.653 255.759,78.854 277.352 C 86.515 352.493,178.268 385.736,231.720 332.735 C 274.040 290.773,263.619 217.663,211.503 190.893 L 202.101 186.063 202.096 179.443 C 202.090 171.690,202.699 171.511,212.905 176.262 C 309.789 221.368,280.385 367.273,173.519 371.700 C 51.851 376.741,22.759 205.335,139.373 170.518 C 153.704 166.239,153.310 166.135,153.310 174.189 M190.941 250.610 C 190.941 260.891,186.431 266.202,177.700 266.202 C 168.970 266.202,164.460 260.891,164.460 250.610 L 164.460 242.509 177.700 242.509 L 190.941 242.509 190.941 250.610 M287.580 251.569 C 286.961 263.050,283.880 288.501,283.109 288.498 C 282.625 288.496,282.230 279.065,282.230 267.541 C 282.230 247.382,282.336 246.602,285.017 246.988 C 287.158 247.295,287.753 248.358,287.580 251.569 M338.676 306.620 L 338.676 313.589 307.317 313.589 C 284.870 313.589,275.958 313.140,275.958 312.008 C 275.958 311.139,276.685 308.003,277.573 305.040 L 279.187 299.652 308.931 299.652 L 338.676 299.652 338.676 306.620 M327.710 327.842 C 340.494 334.913,343.081 352.881,332.973 364.393 C 325.724 372.649,309.775 374.672,301.376 368.401 C 276.156 349.572,300.160 312.602,327.710 327.842 M308.468 333.687 C 298.287 338.240,295.960 351.494,303.940 359.475 C 312.416 367.950,326.980 364.290,330.416 352.820 C 334.282 339.917,320.805 328.169,308.468 333.687 M318.885 344.530 C 321.765 347.409,319.048 354.007,314.983 354.007 C 314.326 354.007,312.802 353.021,311.598 351.817 C 310.393 350.612,309.408 349.089,309.408 348.432 C 309.408 344.366,316.005 341.650,318.885 344.530 " stroke="none" fill="#000000" fill-rule="evenodd"></path></g></svg>