<svg width="172" height="157" viewBox="0 0 172 157" fill="none" xmlns="http://www.w3.org/2000/svg">
<circle cx="84.496" cy="80.3222" r="34.4238" fill="#434343"/>
<path d="M68.8893 67.8044L53.2012 13.7863C78.3021 -11.182 104.69 3.38284 114.747 13.7863L101.472 67.8044H68.8893Z" fill="#FD8909"/>
<path d="M105.503 73.0956L159.848 85.4959C168.023 120.577 141.764 137.336 127.613 141.33L88.4368 102.655L105.503 73.0956Z" fill="#FD8909"/>
<path d="M66.1184 73.0956L11.7728 85.4959C3.59816 120.577 29.8571 137.336 44.0084 141.33L83.1843 102.655L66.1184 73.0956Z" fill="#FD8909"/>
<ellipse cx="85.5396" cy="80.8437" rx="26.0786" ry="26.6002" fill="#8596F0"/>
<mask id="path-6-inside-1" fill="white">
<path d="M142.534 62.9681C143.188 62.9181 143.679 62.3471 143.607 61.6954C143.053 56.698 141.423 51.8748 138.822 47.5605C136.222 43.2461 132.719 39.5515 128.559 36.7275C128.016 36.3592 127.282 36.5272 126.932 37.082C126.583 37.6368 126.75 38.3682 127.292 38.7379C131.139 41.3634 134.379 44.7894 136.788 48.7863C139.197 52.7832 140.713 57.2487 141.238 61.8765C141.312 62.5281 141.88 63.0181 142.534 62.9681Z"/>
</mask>
<path d="M142.534 62.9681C143.188 62.9181 143.679 62.3471 143.607 61.6954C143.053 56.698 141.423 51.8748 138.822 47.5605C136.222 43.2461 132.719 39.5515 128.559 36.7275C128.016 36.3592 127.282 36.5272 126.932 37.082C126.583 37.6368 126.75 38.3682 127.292 38.7379C131.139 41.3634 134.379 44.7894 136.788 48.7863C139.197 52.7832 140.713 57.2487 141.238 61.8765C141.312 62.5281 141.88 63.0181 142.534 62.9681Z" stroke="#9D9D9D" stroke-width="4" mask="url(#path-6-inside-1)"/>
<mask id="path-7-inside-2" fill="white">
<path d="M130.877 61.9336C131.504 61.7437 131.861 61.0802 131.65 60.4593C130.298 56.4862 128.24 52.79 125.573 49.5494C125.156 49.0431 124.404 48.9972 123.912 49.4309C123.42 49.8647 123.375 50.6137 123.79 51.1211C126.233 54.1046 128.125 57.5 129.376 61.1475C129.588 61.7678 130.249 62.1235 130.877 61.9336Z"/>
</mask>
<path d="M130.877 61.9336C131.504 61.7437 131.861 61.0802 131.65 60.4593C130.298 56.4862 128.24 52.79 125.573 49.5494C125.156 49.0431 124.404 48.9972 123.912 49.4309C123.42 49.8647 123.375 50.6137 123.79 51.1211C126.233 54.1046 128.125 57.5 129.376 61.1475C129.588 61.7678 130.249 62.1235 130.877 61.9336Z" stroke="#9D9D9D" stroke-width="4" mask="url(#path-7-inside-2)"/>
<mask id="path-8-inside-3" fill="white">
<path d="M69.991 136.034C69.7073 136.625 69.956 137.337 70.5566 137.6C75.1614 139.619 80.1537 140.618 85.1902 140.523C90.2267 140.429 95.1778 139.242 99.7035 137.052C100.294 136.766 100.516 136.046 100.21 135.466C99.9042 134.885 99.1869 134.665 98.5959 134.949C94.3987 136.968 89.8114 138.061 85.1455 138.149C80.4796 138.237 75.8545 137.317 71.5843 135.457C70.9831 135.196 70.2746 135.443 69.991 136.034Z"/>
</mask>
<path d="M69.991 136.034C69.7073 136.625 69.956 137.337 70.5566 137.6C75.1614 139.619 80.1537 140.618 85.1902 140.523C90.2267 140.429 95.1778 139.242 99.7035 137.052C100.294 136.766 100.516 136.046 100.21 135.466C99.9042 134.885 99.1869 134.665 98.5959 134.949C94.3987 136.968 89.8114 138.061 85.1455 138.149C80.4796 138.237 75.8545 137.317 71.5843 135.457C70.9831 135.196 70.2746 135.443 69.991 136.034Z" stroke="#9D9D9D" stroke-width="4" mask="url(#path-8-inside-3)"/>
<mask id="path-9-inside-4" fill="white">
<path d="M76.7161 126.457C76.5667 127.096 76.963 127.736 77.6062 127.864C81.7229 128.68 85.9533 128.745 90.0931 128.056C90.74 127.948 91.1557 127.32 91.026 126.677C90.8963 126.034 90.2703 125.62 89.6232 125.727C85.8179 126.35 81.9318 126.291 78.1475 125.55C77.5039 125.424 76.8655 125.818 76.7161 126.457Z"/>
</mask>
<path d="M76.7161 126.457C76.5667 127.096 76.963 127.736 77.6062 127.864C81.7229 128.68 85.9533 128.745 90.0931 128.056C90.74 127.948 91.1557 127.32 91.026 126.677C90.8963 126.034 90.2703 125.62 89.6232 125.727C85.8179 126.35 81.9318 126.291 78.1475 125.55C77.5039 125.424 76.8655 125.818 76.7161 126.457Z" stroke="#9D9D9D" stroke-width="4" mask="url(#path-9-inside-4)"/>
<mask id="path-10-inside-5" fill="white">
<path d="M40.7877 37.7248C40.5612 37.1093 39.8778 36.7921 39.2705 37.0394C34.6137 38.9355 30.4182 41.8198 26.9767 45.4983C23.5352 49.1768 20.9362 53.5548 19.3539 58.3273C19.1476 58.9498 19.5096 59.6106 20.1387 59.7956C20.7678 59.9806 21.4257 59.6198 21.6337 58.9978C23.1103 54.5806 25.5226 50.5286 28.7109 47.1207C31.8991 43.7129 35.7819 41.0366 40.0911 39.2695C40.6978 39.0207 41.0141 38.3402 40.7877 37.7248Z"/>
</mask>
<path d="M40.7877 37.7248C40.5612 37.1093 39.8778 36.7921 39.2705 37.0394C34.6137 38.9355 30.4182 41.8198 26.9767 45.4983C23.5352 49.1768 20.9362 53.5548 19.3539 58.3273C19.1476 58.9498 19.5096 59.6106 20.1387 59.7956C20.7678 59.9806 21.4257 59.6198 21.6337 58.9978C23.1103 54.5806 25.5226 50.5286 28.7109 47.1207C31.8991 43.7129 35.7819 41.0366 40.0911 39.2695C40.6978 39.0207 41.0141 38.3402 40.7877 37.7248Z" stroke="#9D9D9D" stroke-width="4" mask="url(#path-10-inside-5)"/>
<mask id="path-11-inside-6" fill="white">
<path d="M42.973 49.2207C42.6191 48.6686 41.8834 48.5063 41.3437 48.8788C37.8898 51.2629 34.8954 54.2519 32.5051 57.7014C32.1316 58.2404 32.2926 58.9765 32.844 59.3314C33.3955 59.6863 34.1284 59.5256 34.5033 58.9875C36.7074 55.8235 39.4582 53.0778 42.6261 50.8794C43.1649 50.5055 43.327 49.7728 42.973 49.2207Z"/>
</mask>
<path d="M42.973 49.2207C42.6191 48.6686 41.8834 48.5063 41.3437 48.8788C37.8898 51.2629 34.8954 54.2519 32.5051 57.7014C32.1316 58.2404 32.2926 58.9765 32.844 59.3314C33.3955 59.6863 34.1284 59.5256 34.5033 58.9875C36.7074 55.8235 39.4582 53.0778 42.6261 50.8794C43.1649 50.5055 43.327 49.7728 42.973 49.2207Z" stroke="#9D9D9D" stroke-width="4" mask="url(#path-11-inside-6)"/>
</svg>
