<svg id="svg" xmlns="http://www.w3.org/2000/svg" xmlns:xlink="http://www.w3.org/1999/xlink" width="400" height="494.3089430894309" viewBox="0, 0, 400,494.3089430894309"><g id="svgg"><path id="path0" d="M164.228 18.761 C 113.094 32.543,91.421 65.482,89.378 132.520 C 88.015 177.249,86.846 182.557,73.075 206.504 C 47.557 250.880,52.511 301.467,85.769 336.112 L 94.303 345.001 84.733 354.423 C 66.093 372.776,60.317 391.053,60.213 432.008 C 60.152 455.881,61.381 460.163,68.293 460.163 C 75.452 460.163,76.423 456.010,76.423 425.393 C 76.423 372.511,94.203 351.040,141.121 347.261 L 152.974 346.307 180.146 367.424 C 196.178 379.885,208.808 388.558,210.955 388.580 C 218.271 388.656,249.018 362.799,248.456 357.042 C 247.574 348.004,241.220 349.286,225.053 361.765 C 215.643 369.029,210.492 372.041,209.213 371.029 C 208.170 370.203,198.537 362.768,187.805 354.505 C 177.073 346.242,168.038 339.246,167.727 338.958 C 167.415 338.670,169.797 334.982,173.019 330.762 C 176.241 326.542,179.689 320.089,180.681 316.423 C 181.673 312.756,182.719 308.908,183.005 307.871 C 183.374 306.534,185.331 306.404,189.730 307.425 C 232.001 317.237,279.620 294.469,298.983 255.190 C 308.600 235.682,310.507 224.511,310.541 187.515 C 310.573 152.108,310.285 151.220,298.771 151.220 C 284.816 151.220,274.684 143.003,271.376 129.005 C 267.080 110.823,264.596 109.979,247.612 120.932 C 223.726 136.337,194.458 148.087,165.854 153.756 C 146.312 157.628,140.897 162.563,148.899 169.204 C 156.377 175.410,213.032 158.241,244.715 140.167 L 256.098 133.674 259.506 141.276 C 265.155 153.873,281.617 165.854,293.278 165.854 C 296.909 165.854,297.053 209.876,293.478 226.829 C 279.296 294.079,197.317 317.781,150.511 268.165 C 130.968 247.448,126.829 233.513,126.829 188.431 C 126.829 152.652,123.611 143.706,114.146 153.171 C 111.075 156.243,111.488 220.923,114.659 233.398 C 120.875 257.854,141.061 285.187,160.976 296.113 C 179.592 306.328,159.547 333.333,133.349 333.333 C 129.153 333.333,122.203 334.392,117.905 335.685 L 110.091 338.037 102.789 332.054 C 68.168 303.684,62.096 255.000,87.638 210.569 C 101.292 186.817,104.033 173.667,104.075 131.707 C 104.124 83.293,118.042 55.490,149.871 40.221 C 179.325 26.092,246.467 26.573,273.807 41.108 C 306.963 58.734,317.064 80.381,318.741 137.398 C 320.068 182.523,321.373 188.478,334.959 211.382 C 354.345 244.064,355.956 275.035,339.891 306.230 C 332.178 321.206,332.190 321.127,337.289 324.468 C 343.306 328.410,346.914 325.395,354.434 310.142 C 370.979 276.584,369.373 242.062,349.670 207.749 C 335.521 183.107,334.535 178.732,333.274 134.959 C 331.369 68.853,312.856 37.912,265.041 20.920 C 251.349 16.055,179.944 14.525,164.228 18.761 M249.168 314.904 C 231.713 321.936,258.211 345.344,286.646 348.011 C 328.231 351.912,345.136 373.869,346.077 425.203 C 346.662 457.097,347.316 460.163,353.532 460.163 C 364.647 460.163,364.643 399.790,353.526 376.292 C 342.045 352.024,318.773 336.454,289.441 333.420 C 272.784 331.697,268.079 329.639,259.875 320.489 C 253.896 313.821,253.008 313.357,249.168 314.904 " stroke="none" fill="#000000" fill-rule="evenodd"></path></g></svg>