<svg width="240" height="215" viewBox="0 0 240 215" fill="none" xmlns="http://www.w3.org/2000/svg">
<g clip-path="url(#clip0)">
<path d="M108.092 179.635L60.4551 179.635L60.4551 190.441L108.092 190.441L108.092 179.635Z" fill="#B3B3B3"/>
<path d="M92.1942 70.5732H76.8488L64.8789 85.1494L104.17 85.143L92.1942 70.5732Z" fill="#E6E7E8"/>
<path d="M90.0133 51.865L78.3549 51.8523L76.5368 70.5795L91.8822 70.605L90.0133 51.865Z" fill="#12C6B4"/>
<path d="M108.098 180.432L60.4604 180.432L64.8784 85.1494L104.17 85.143L108.098 180.432Z" fill="#12C6B4"/>
</g>
<g clip-path="url(#clip1)">
<path d="M143.454 182.235L100.541 182.235L100.541 191.969L143.454 191.969L143.454 182.235Z" fill="#696969"/>
<path d="M129.132 83.9891L115.309 83.9891L104.526 97.1196L139.921 97.1139L129.132 83.9891Z" fill="#E6E7E8"/>
<path d="M127.169 67.1363L116.667 67.1249L115.029 83.9948L128.852 84.0177L127.169 67.1363Z" fill="#EA6A47"/>
<path d="M143.46 182.952L100.547 182.952L104.526 97.1196L139.921 97.1139L143.46 182.952Z" fill="#EA6A47"/>
</g>
<defs>
<clipPath id="clip0">
<rect width="119.566" height="183.394" fill="white" transform="translate(129.68 0.527283) rotate(45)"/>
</clipPath>
<clipPath id="clip1">
<rect width="107.708" height="165.206" fill="white" transform="translate(162.902 20.8901) rotate(45)"/>
</clipPath>
</defs>
</svg>
