<svg width="169" height="137" viewBox="0 0 169 137" fill="none" xmlns="http://www.w3.org/2000/svg">
<path d="M104.989 18.6254C106.106 18.6254 107.013 17.7177 107.013 16.6005C107.013 14.5538 108.681 12.8868 110.727 12.8868H132.141C133.258 12.8868 134.166 11.9791 134.166 10.8619C134.166 9.74471 133.258 8.83701 132.141 8.83701H110.727C106.446 8.83701 102.959 12.3194 102.959 16.6048C102.964 17.7177 103.871 18.6254 104.989 18.6254Z" fill="#65A4C5"/>
<path opacity="0.4" d="M104.343 18.5119C104.404 14.2832 107.861 10.8619 112.107 10.8619H133.521C133.748 10.8619 133.961 10.9055 134.162 10.9753C134.101 12.0402 133.228 12.8868 132.146 12.8868H110.732C108.685 12.8868 107.018 14.5538 107.018 16.6005C107.018 17.7177 106.111 18.6254 104.993 18.6254C104.762 18.6254 104.548 18.5774 104.343 18.5119Z" fill="#326C92"/>
<path d="M136.811 0C142.222 0 145.582 1.27427 147.21 2.11652C147.939 2.49618 148.393 3.24678 148.393 4.07157V7.32708C148.393 8.11696 147.987 8.86319 147.302 9.26031C146.158 9.928 144.522 11.1935 144.522 12.9697C144.522 15.7059 144.522 27.458 144.522 27.458L136.811 26.9081L129.1 27.458C129.1 27.458 129.1 15.7059 129.1 12.9697C129.1 11.1935 127.463 9.928 126.32 9.26031C125.635 8.86319 125.229 8.11696 125.229 7.32708V4.07157C125.229 3.24678 125.678 2.49618 126.411 2.11652C128.039 1.27427 131.399 0 136.811 0Z" fill="#65A4C5"/>
<path opacity="0.4" d="M137.36 10.8052C137.36 8.59263 138.403 7.73729 140.899 6.24482C140.899 6.24482 140.899 2.66637 143.574 3.29915C144.015 3.40388 144.403 3.55662 144.748 3.68318C145.473 3.95374 145.957 4.63452 145.957 5.40694V7.22234C143.461 8.71482 142.086 10.7528 142.086 12.9653V24.844L136.81 24.4687L131.534 24.844C135.038 23.5479 137.36 20.2051 137.36 16.4696V10.8052Z" fill="#326C92"/>
<path opacity="0.4" d="M125.717 8.69736C125.905 8.45735 126.132 8.23915 126.415 8.09514C128.043 7.25289 131.399 5.97862 136.815 5.97862C142.226 5.97862 145.586 7.25289 147.214 8.09514C147.498 8.24351 147.724 8.45735 147.912 8.69736C147.746 8.91556 147.55 9.11194 147.306 9.25595C146.162 9.92363 144.526 11.1892 144.526 12.9653C144.526 13.1879 144.526 13.4759 144.526 13.8076C142.675 13.2446 140.136 12.7646 136.815 12.7646C133.498 12.7646 130.954 13.2446 129.103 13.8076C129.103 13.4759 129.103 13.1879 129.103 12.9653C129.103 11.1892 127.467 9.92363 126.324 9.25595C126.079 9.1163 125.883 8.91556 125.717 8.69736Z" fill="#326C92"/>
<path d="M117.448 35.0731C117.67 30.8183 120.83 27.2878 125.037 26.5939C127.86 26.127 131.857 25.7648 137.456 25.7648C143.055 25.7648 147.057 26.127 149.876 26.5939C154.083 27.2878 157.238 30.8139 157.465 35.0731C157.587 37.4078 157.352 40.0437 156.234 42.3827C148.536 38.8698 137.456 39.4109 137.456 39.4109C137.456 39.4109 126.381 38.8698 118.678 42.3827C117.565 40.0437 117.325 37.4078 117.448 35.0731Z" fill="#FFAB2F"/>
<path d="M118.526 42.0205C117.548 39.7731 117.33 37.2856 117.448 35.0731C117.649 31.2547 120.215 28.0297 123.771 26.9038C121.018 28.3657 119.128 31.1805 118.954 34.4316C118.836 36.6703 119.058 39.1796 120.058 41.4445C119.543 41.6234 119.032 41.8198 118.526 42.0205Z" fill="#FFCD82"/>
<path opacity="0.2" d="M137.456 35.252C137.456 35.252 127.964 34.9597 120.69 38.3679C120.371 38.5163 119.991 38.3243 119.952 37.9751C119.952 37.9577 119.948 37.9446 119.948 37.9271C119.847 36.9627 120.598 36.1685 121.567 36.1685H121.584C128.261 36.1685 133.677 34.0825 133.677 31.5034C133.677 30.3164 132.516 29.2385 130.622 28.4137C132.695 28.2697 134.973 28.1955 137.456 28.1955C142.235 28.1955 146.28 28.4617 149.483 28.9898C152.577 29.5003 154.89 32.1405 155.043 35.2739C155.104 36.5001 155.034 37.6304 154.855 38.669C147.506 34.9422 137.456 35.252 137.456 35.252Z" fill="#326C92"/>
<path d="M124.775 29.1774C129.095 28.2828 129.479 31.4205 124.217 32.926C118.958 34.436 120.625 30.0415 124.775 29.1774Z" fill="#FFCD82"/>
<path d="M137.499 128.3H158.036C158.909 128.3 159.52 129.156 159.24 129.98L158.088 133.358C157.516 135.038 155.937 136.169 154.161 136.169H137.499H120.837C119.061 136.169 117.486 135.038 116.91 133.362L115.758 129.985C115.474 129.16 116.089 128.305 116.962 128.305H137.499V128.3Z" fill="white"/>
<path opacity="0.4" d="M135.502 133.053L136.13 130.731H156.418L155.79 133.053C155.554 133.93 154.899 134.515 154.166 134.515H133.878C134.611 134.515 135.262 133.93 135.502 133.053Z" fill="#326C92"/>
<path d="M115.845 44.0061C121.99 36.5001 137.46 36.9802 137.46 36.9802C137.46 36.9802 152.93 36.4958 159.074 44.0061C171.232 58.8654 168.802 90.7485 168.802 108.58C168.802 116.12 166.676 121.392 164.224 124.962C161.365 129.121 156.596 131.547 151.551 131.547H137.464H123.377C118.333 131.547 113.558 129.121 110.704 124.962C108.252 121.392 106.127 116.12 106.127 108.58C106.118 90.7485 103.687 58.8654 115.845 44.0061Z" fill="#65A4C5"/>
<path opacity="0.4" d="M125.432 118.844C136.778 118.844 137.346 84.4164 137.359 83.6003C136.966 69.7578 135.177 55.0775 128.635 47.0827C127.579 45.7953 125.978 44.8004 124.119 44.041C128.225 42.3609 133.567 41.8372 136.887 41.8372C137.132 41.8372 137.455 41.846 137.455 41.846C137.455 41.846 137.778 41.8372 138.022 41.8372C142.849 41.8372 151.917 42.9413 155.308 47.0827C164.716 58.5817 164.302 83.9232 164.027 100.69C163.979 103.5 163.935 106.158 163.935 108.575C163.935 114.021 162.683 118.608 160.208 122.204C158.284 125.006 155.042 126.677 151.542 126.677H150.56H124.869C110.664 126.677 109.491 115.736 109.491 115.736C109.491 115.736 113.951 118.844 125.432 118.844Z" fill="#326C92"/>
<path opacity="0.4" d="M152.503 122.208C154.973 118.612 156.23 114.026 156.23 108.58C156.23 106.162 156.274 103.509 156.322 100.694C156.597 83.9276 157.016 58.5861 147.602 47.0871C144.884 43.7661 138.512 42.4002 133.603 41.9856C134.812 41.8852 135.938 41.8372 136.893 41.8372C137.138 41.8372 137.461 41.846 137.461 41.846C137.461 41.846 137.784 41.8372 138.028 41.8372C142.855 41.8372 151.923 42.9413 155.314 47.0827C164.722 58.5817 164.308 83.9232 164.033 100.69C163.985 103.5 163.941 106.158 163.941 108.575C163.941 114.021 162.689 118.608 160.214 122.204C158.29 125.006 155.047 126.677 151.548 126.677H150.566H143.841C147.336 126.681 150.579 125.01 152.503 122.208Z" fill="#326C92"/>
<path d="M92.4625 58.7607L101.57 21.1259C101.924 19.6553 103.202 18.6254 104.673 18.6254C106.139 18.6254 107.418 19.6553 107.776 21.1259L116.883 58.7607C117.315 60.5368 117.346 62.4133 116.853 64.172C115.941 67.4231 113.108 71.4292 104.673 71.4292C96.2373 71.4292 93.4051 67.4275 92.493 64.172C91.9999 62.4133 92.0305 60.5368 92.4625 58.7607Z" fill="#AAC1CE"/>
<path opacity="0.5" d="M99.0028 55.4964H102.106C102.35 55.4964 102.551 55.2957 102.551 55.0513V51.9485C102.551 51.5165 102.9 51.1674 103.332 51.1674H106.007C106.439 51.1674 106.788 51.5165 106.788 51.9485V55.0513C106.788 55.2957 106.989 55.4964 107.233 55.4964H110.336C110.768 55.4964 111.117 55.8455 111.117 56.2776V58.9527C111.117 59.3847 110.768 59.7338 110.336 59.7338H107.233C106.989 59.7338 106.788 59.9346 106.788 60.179V63.2817C106.788 63.7138 106.439 64.0629 106.007 64.0629H103.332C102.9 64.0629 102.551 63.7138 102.551 63.2817V60.179C102.551 59.9346 102.35 59.7338 102.106 59.7338H99.0028C98.5708 59.7338 98.2217 59.3847 98.2217 58.9527V56.2776C98.2173 55.8455 98.5708 55.4964 99.0028 55.4964Z" fill="#AAC1CE"/>
<path d="M0.204895 65.551L34.2481 63.1203C34.2481 63.1203 52.8909 51.774 62.8189 51.5689C72.7469 51.3681 86.729 60.8903 91.3898 61.4969C96.0505 62.1035 94.6322 68.7934 91.3898 69.8058C88.1473 70.8183 74.1478 69.3869 74.1478 69.3869C74.1478 69.3869 88.959 76.6965 96.2512 78.1148C103.548 79.5331 116.112 73.4541 119.35 74.4665C122.592 75.479 124.416 79.328 124.416 79.328C124.416 79.328 128.671 79.8604 129.077 84.2549C129.483 88.6494 123.81 90.4735 123.81 90.4735C123.81 90.4735 123.203 96.3518 117.325 98.3767C117.325 98.3767 115.579 103.648 110.84 105.062C106.101 106.476 93.4146 112.56 84.0932 112.359C74.7718 112.158 38.7037 103.238 30.194 103.238C21.6843 103.238 0.204895 106.681 0.204895 106.681V65.551Z" fill="#FF8B61"/>
<path opacity="0.2" d="M60.8941 68.4923C60.8941 68.4923 64.3373 66.1619 74.1518 69.3913C74.1518 69.3913 88.9631 76.7009 96.2552 78.1192C97.1324 78.2894 98.0881 78.3505 99.0918 78.3286C99.0918 78.3286 93.0128 80.3492 78.9303 75.0775C64.8478 69.8058 60.8941 68.4923 60.8941 68.4923Z" fill="#D23D1E"/>
<path d="M92.1327 63.0199C86.8435 60.8728 85.0107 59.6771 84.199 63.0199C83.3873 66.3627 88.048 67.3751 89.9725 67.1744C91.9014 66.9693 93.0622 63.3952 92.1327 63.0199Z" fill="#FFB89E"/>
<path opacity="0.2" d="M84.1993 63.0199C84.6139 61.3092 85.2991 60.7899 86.5777 60.9775C86.6475 63.2206 85.862 64.7349 84.9979 65.6994C84.3041 65.0535 83.92 64.1807 84.1993 63.0199Z" fill="#D23D1E"/>
<path opacity="0.2" d="M129.081 84.2593C129.391 87.6413 126.114 89.496 124.582 90.1724C127.279 88.7149 127.309 83.6396 124.42 84.2593C121.278 84.9313 99.4978 93.6156 92.4587 92.7035C85.4197 91.7914 73.3577 89.9062 73.3577 89.9062C73.3577 89.9062 71.6339 88.1432 75.3826 87.0304C79.1312 85.9176 91.8958 90.3732 99.0919 89.8669C106.288 89.3607 124.215 82.0642 124.42 79.328C124.42 79.3324 128.675 79.8648 129.081 84.2593Z" fill="#D23D1E"/>
<path opacity="0.2" d="M123.813 90.4779C123.844 90.4692 123.87 90.4561 123.9 90.4474C123.848 90.4648 123.813 90.4779 123.813 90.4779Z" fill="#D23D1E"/>
<path opacity="0.2" d="M71.5343 105.472C71.5343 105.472 73.258 103.749 76.6008 103.648C79.9436 103.548 85.9222 105.778 93.5199 105.267C101.118 104.761 106.59 101.519 114.087 98.7825C121.584 96.0463 121.179 93.4105 121.179 93.4105C121.179 93.4105 101.423 101.719 94.6327 102.125C87.8424 102.531 73.5591 98.8829 73.5591 98.8829C73.5591 98.8829 75.9899 96.6529 80.6506 97.1591C85.3113 97.6653 90.4782 101.314 99.5989 99.6902C108.72 98.0712 123.814 90.4692 123.814 90.4692C123.814 90.4692 123.208 96.3474 117.33 98.3723C117.33 98.3723 115.584 103.644 110.845 105.058C109.688 105.403 108.052 106.027 106.11 106.773C113.633 104.032 115.1 100.096 115.1 100.096C115.1 100.096 101.624 105.568 93.7206 106.275C85.8219 106.991 71.5343 105.472 71.5343 105.472Z" fill="#D23D1E"/>
<path d="M120.597 89.5178C120.597 88.6581 121.121 87.8901 121.92 87.5802C123.517 86.9605 126.048 86.2143 126.48 87.4624C126.82 88.0864 126.812 88.5796 126.685 88.9461C125.289 89.9979 123.809 90.4779 123.809 90.4779C123.809 90.4779 122.936 90.9317 120.593 92.0184V89.5178H120.597Z" fill="#FFB89E"/>
<path opacity="0.2" d="M122.186 91.2721C121.754 91.4772 121.234 91.7216 120.597 92.0184V89.5178C120.597 88.6581 121.121 87.8901 121.924 87.5802C121.998 87.5497 122.076 87.5235 122.155 87.493C122.081 88.453 122.129 90.072 122.186 91.2721Z" fill="#D23D1E"/>
<path opacity="0.2" d="M0.204823 65.551L34.248 63.1203C24.0146 67.1656 7.07805 69.4698 0.204823 70.2815V65.551Z" fill="#D23D1E"/>
<path d="M114.205 85.5073C114.039 84.748 113.882 83.3166 114.628 81.9682C115.645 80.1222 119.359 79.2407 122.27 81.5143C120.384 82.745 117.447 84.1763 114.205 85.5073Z" fill="#FFB89E"/>
<path opacity="0.2" d="M115.811 84.8266C115.287 85.0535 114.754 85.2804 114.205 85.5073C114.039 84.748 113.882 83.3166 114.628 81.9682C114.872 81.5274 115.274 81.1434 115.78 80.8423C115.509 82.2344 115.649 83.7836 115.811 84.8266Z" fill="#D23D1E"/>
</svg>
