<svg height="512pt" viewBox="0 0 512 512" width="512pt" xmlns="http://www.w3.org/2000/svg"><path d="m301 167c0 8.398438-6.597656 15-15 15h-196l-30-90.199219 30-91.800781h46c21.300781 0 41.398438 3.898438 60 11.398438 61.5 24 105 85.699218 105 155.601562zm0 0" fill="#c6e2e7"/><path d="m286 182h-90v-170.601562c61.5 24 105 85.699218 105 155.601562 0 8.398438-6.597656 15-15 15zm0 0" fill="#a8d3d8"/><path d="m482 355.097656-30 98.703125-116.5 50.398438c-10.5 5.101562-22.199219 7.800781-33.597656 7.800781 0 0-42.003906 0-75.902344 0h-41.699219c-16.199219 0-32.101562-5.398438-45-15l-108.300781-81c-13.5-9.902344-15.902344-28.800781-6-42 12-14.402344 29.101562-15.300781 42-6l21 15.597656 47.398438 35.402344c2.402343 1.800781 5.699218 3 9 3h156.601562c8.402344 0 15-6.601562 15-15 0-8.402344-6.597656-15-15-15 0 0-40.800781 0-75 0h-45c-16.5 0-30-13.5-30-30s13.5-30 30-30h70.5c9.300781-4.800781 27.300781-23.699219 72.902344-30h127.597656zm0 0" fill="#fdd1a3"/><path d="m482 355.097656-30 98.703125-116.5 50.398438c-10.5 5.101562-22.199219 7.800781-33.597656 7.800781 0 0-42.003906 0-75.902344 0h-30v-90h105c8.402344 0 15-6.601562 15-15 0-8.402344-6.597656-15-15-15 0 0-40.800781 0-75 0h-30v-60h55.5c9.300781-4.800781 27.300781-23.699219 72.902344-30h127.597656zm0 0" fill="#ffbb85"/><path d="m151.746094 303.070312c-1.945313 0-3.9375-.382812-5.84375-1.1875-15.777344-6.679687-25.210938-18.957031-25.210938-32.84375 0-13.871093 9.433594-26.144531 25.210938-32.824218 5.359375-2.273438 6.824218-4.734375 6.914062-5.230469-.089844-.4375-1.554687-2.898437-6.898437-5.171875-7.632813-3.207031-11.207031-12.011719-7.984375-19.644531 3.222656-7.644531 12.011718-11.21875 19.644531-7.980469 15.804687 6.664062 25.226563 18.9375 25.226563 32.824219s-9.421876 26.164062-25.226563 32.828125c-5.347656 2.269531-6.8125 4.746094-6.886719 5.230468.074219.4375 1.539063 2.914063 6.902344 5.183594 7.628906 3.222656 11.1875 12.027344 7.96875 19.660156-2.417969 5.726563-7.96875 9.15625-13.816406 9.15625zm0 0" fill="#ffa78f"/><path d="m226.746094 303.070312c-1.945313 0-3.9375-.382812-5.84375-1.1875-15.777344-6.679687-25.210938-18.957031-25.210938-32.84375 0-13.871093 9.433594-26.144531 25.210938-32.824218 5.359375-2.273438 6.824218-4.734375 6.914062-5.230469-.089844-.4375-1.554687-2.898437-6.898437-5.171875-7.632813-3.207031-11.207031-12.011719-7.984375-19.644531 3.222656-7.644531 12.011718-11.21875 19.644531-7.980469 15.804687 6.664062 25.226563 18.9375 25.226563 32.824219s-9.421876 26.164062-25.226563 32.828125c-5.347656 2.269531-6.8125 4.746094-6.886719 5.230468.074219.4375 1.539063 2.914063 6.902344 5.183594 7.628906 3.222656 11.1875 12.027344 7.96875 19.660156-2.417969 5.726563-7.96875 9.15625-13.816406 9.15625zm0 0" fill="#ffa78f"/><path d="m497 482h-30c-8.285156 0-15-6.714844-15-15v-165h45c8.285156 0 15 6.714844 15 15v150c0 8.285156-6.714844 15-15 15zm0 0" fill="#cc2e43"/><path d="m45 242h-30c-8.285156 0-15-6.714844-15-15v-212c0-8.285156 6.714844-15 15-15h75v197c0 24.851562-20.148438 45-45 45zm0 0" fill="#deecf1"/></svg>