<svg width="49" height="45" viewBox="0 0 49 45" fill="none" xmlns="http://www.w3.org/2000/svg">
<g clip-path="url(#clip0)">
<path fill-rule="evenodd" clip-rule="evenodd" d="M10.0967 29.4103C10.4764 29.4103 10.8405 29.558 11.1089 29.8209C11.3774 30.0839 11.5282 30.4405 11.5282 30.8123C11.5282 31.1841 11.3774 31.5407 11.1089 31.8036C10.8405 32.0666 10.4764 32.2143 10.0967 32.2143H7.40902L3.868 42.2039H45.0323L41.1882 32.2143H38.9671C38.5875 32.2143 38.2233 32.0666 37.9549 31.8036C37.6864 31.5407 37.5356 31.1841 37.5356 30.8123C37.5356 30.4405 37.6864 30.0839 37.9549 29.8209C38.2233 29.558 38.5875 29.4103 38.9671 29.4103H43.2339L49 45H0L5.31152 29.4103H10.0967Z" fill="#212121"/>
<path fill-rule="evenodd" clip-rule="evenodd" d="M31.5269 32.6634C29.7447 34.583 27.6932 36.245 25.4338 37.5996C25.2936 37.7016 25.1249 37.7593 24.9503 37.7649C24.7757 37.7705 24.6035 37.7237 24.4568 37.6308C21.2314 35.6351 18.3677 33.1276 15.9831 30.2109C12.8967 26.4345 10.9507 22.2286 10.2887 18.1789C9.62679 14.1291 10.2449 10.1224 12.3304 6.90836C13.1786 5.60297 14.2449 4.44653 15.4846 3.48737C18.4275 1.19109 21.7891 -0.0234343 25.1227 -2.93847e-06C28.5414 0.0483786 31.8161 1.35626 34.2943 3.66311C35.2473 4.51609 36.0704 5.49849 36.7387 6.58032C38.9837 10.2005 39.4662 14.8165 38.4813 19.4949C37.3888 24.4073 34.9865 28.9483 31.5189 32.6556L31.5269 32.6634ZM24.5007 7.30278C25.925 7.30278 27.3174 7.71643 28.5017 8.4914C29.686 9.26638 30.609 10.3679 31.1541 11.6566C31.6992 12.9454 31.8418 14.3635 31.5639 15.7316C31.2861 17.0997 30.6002 18.3564 29.593 19.3428C28.5858 20.3291 27.3026 21.0008 25.9056 21.273C24.5086 21.5451 23.0606 21.4054 21.7447 20.8716C20.4288 20.3378 19.304 19.4338 18.5127 18.274C17.7214 17.1142 17.299 15.7506 17.299 14.3556C17.299 12.4851 18.0577 10.6912 19.4083 9.36852C20.7589 8.04585 22.5907 7.30278 24.5007 7.30278Z" fill="#F44336"/>
</g>
<defs>
<clipPath id="clip0">
<rect width="49" height="45" fill="white"/>
</clipPath>
</defs>
</svg>