<svg id="svg" xmlns="http://www.w3.org/2000/svg" xmlns:xlink="http://www.w3.org/1999/xlink" width="400" height="454.14847161572055" viewBox="0, 0, 400,454.14847161572055"><g id="svgg"><path id="path0" d="M176.539 21.004 C 114.136 34.139,85.590 76.061,85.590 154.568 C 85.590 191.100,90.971 206.114,104.064 206.114 C 105.431 206.114,106.578 206.310,106.611 206.550 C 111.666 242.773,126.119 267.663,150.987 282.969 C 169.398 294.302,155.962 319.651,131.544 319.651 C 100.887 319.651,70.827 342.302,62.163 371.933 C 57.820 386.784,58.156 437.645,62.612 440.030 C 71.247 444.651,73.021 439.291,73.689 406.552 C 74.662 358.862,90.430 337.705,127.511 334.339 C 142.226 333.003,149.742 330.707,156.892 325.365 L 162.692 321.031 172.959 325.638 C 190.446 333.486,216.195 333.911,220.205 326.417 C 223.695 319.897,218.206 316.342,206.313 317.421 C 185.571 319.302,170.084 311.917,173.258 301.661 L 175.311 295.025 185.036 296.421 C 223.933 302.004,259.032 286.627,280.179 254.739 C 292.766 235.759,294.032 229.461,294.791 182.085 C 295.604 131.296,294.669 126.755,280.463 112.550 C 265.869 97.955,263.483 97.539,197.964 98.162 L 142.358 98.690 133.059 103.841 C 112.902 115.007,108.041 126.134,106.696 164.192 C 105.679 192.959,105.671 193.004,102.434 188.233 C 98.107 181.854,99.034 122.635,103.726 105.677 C 119.376 49.115,173.105 21.512,236.245 37.596 C 248.964 40.836,249.894 41.667,244.541 45.009 C 235.246 50.814,241.209 56.754,258.783 59.196 C 281.292 62.323,298.160 70.732,311.465 85.459 L 317.926 92.611 313.526 99.581 C 298.432 123.491,300.541 203.260,315.777 184.716 C 316.798 183.473,317.851 168.995,318.221 151.092 C 318.915 117.575,320.484 111.081,330.542 100.097 C 339.624 90.178,311.821 60.358,284.531 50.747 C 276.308 47.851,275.246 46.917,275.182 42.517 C 274.979 28.655,208.783 14.218,176.539 21.004 M262.171 115.855 C 266.405 118.090,272.227 123.264,275.109 127.353 L 280.349 134.788 280.882 173.297 C 281.603 225.399,278.482 237.590,259.042 258.587 C 218.244 302.654,144.046 285.762,125.257 228.130 C 120.855 214.629,118.851 157.086,122.217 140.871 C 124.681 129.000,131.834 119.822,142.343 115.048 C 154.433 109.555,251.476 110.209,262.171 115.855 M235.059 304.928 C 226.117 313.871,247.105 331.179,270.006 333.748 C 313.502 338.626,328.326 357.363,329.705 409.203 C 330.560 441.317,331.884 445.043,340.341 439.119 C 344.606 436.132,345.923 397.837,342.399 379.257 C 336.530 348.306,311.356 324.984,279.476 320.962 C 259.153 318.399,258.724 318.239,249.886 309.973 C 240.742 301.419,239.120 300.867,235.059 304.928 M246.702 407.272 C 239.380 414.594,246.254 419.488,262.970 418.854 C 277.795 418.291,282.348 415.435,278.410 409.170 C 275.978 405.303,250.213 403.761,246.702 407.272 " stroke="none" fill="#000000" fill-rule="evenodd"></path></g></svg>