<svg width="27" height="27" viewBox="0 0 27 27" fill="none" xmlns="http://www.w3.org/2000/svg">
<path fill-rule="evenodd" clip-rule="evenodd" d="M13.8196 12.4922C14.0635 12.4142 14.3337 12.4365 14.6369 12.5747L16.9221 14.3294C17.4187 14.7107 17.8537 15.1722 17.522 15.8678C17.4099 16.1041 17.2143 16.336 16.999 16.6459L16.8826 16.8131C16.4497 17.4374 16.3091 17.259 15.6279 17.2211C15.751 20.2021 16.0124 23.4238 15.0478 26.3356C14.8567 26.9376 14.3183 27.1026 13.5207 26.9398L12.1804 26.4872C13.0835 25.1183 13.5339 23.3993 13.5954 21.3837C12.8352 23.2967 12.1013 25.1651 11.2488 26.0346L9.86888 25.5709C10.0029 24.8908 10.0996 24.3602 9.94578 24.0325L9.05149 24.9778L7.00145 23.6913C8.39891 22.9422 9.55467 21.9367 10.4292 20.6301C8.95921 21.7472 7.62547 22.4361 6.44334 22.6345C5.83909 22.8196 5.45677 22.7126 5.30955 22.2934C5.20408 21.9946 5.29856 21.8988 5.48753 21.6557C5.73143 21.3414 6.06102 21.0605 6.44334 20.8107C5.7556 21.056 5.42381 21.0225 5.04368 21.1474C3.96702 21.5019 2.8596 20.7327 3.22874 19.609C3.46385 18.8889 4.00657 18.9201 4.69432 18.7016L5.88523 18.3248C4.74485 18.3872 3.61766 18.4251 2.58494 18.269C1.39842 18.0907 1.41819 18.0483 0.774394 17.0695C-0.0913285 15.7519 -0.598897 14.5167 1.32811 15.0273C5.00413 15.7363 8.70213 16.2178 12.5891 14.8088C12.4221 14.5145 12.3913 14.2358 12.4792 13.9771C12.6067 13.587 13.4328 12.6149 13.8196 12.4922ZM25.0058 0.539562L16.3596 11.4889C15.3247 12.9783 17.0627 14.1443 18.2031 12.7464L26.8164 1.76136C27.4931 0.414707 26.177 -0.704534 25.0058 0.539562Z" fill="#3A4354"/>
</svg>
