<svg width="19" height="35" viewBox="0 0 19 35" fill="none" xmlns="http://www.w3.org/2000/svg">
<mask id="path-1-inside-1" fill="white">
<path fill-rule="evenodd" clip-rule="evenodd" d="M9.14062 0.603699C6.93149 0.603699 5.14062 2.39456 5.14062 4.6037V17.6834C2.43066 19.2511 0.607422 22.1811 0.607422 25.537C0.607422 30.5444 4.66671 34.6037 9.67409 34.6037C14.6815 34.6037 18.7408 30.5444 18.7408 25.537C18.7408 22.181 16.9174 19.2509 14.2073 17.6832V4.6037C14.2073 2.39456 12.4164 0.603699 10.2073 0.603699H9.14062Z"/>
</mask>
<path d="M5.14062 17.6834L5.64137 18.549L6.14062 18.2602V17.6834H5.14062ZM14.2073 17.6832H13.2073V18.26L13.7066 18.5488L14.2073 17.6832ZM6.14062 4.6037C6.14062 2.94684 7.48377 1.6037 9.14062 1.6037V-0.396301C6.3792 -0.396301 4.14062 1.84227 4.14062 4.6037H6.14062ZM6.14062 17.6834V4.6037H4.14062V17.6834H6.14062ZM1.60742 25.537C1.60742 22.5525 3.22769 19.9453 5.64137 18.549L4.63988 16.8178C1.63364 18.5569 -0.392578 21.8097 -0.392578 25.537H1.60742ZM9.67409 33.6037C5.21899 33.6037 1.60742 29.9921 1.60742 25.537H-0.392578C-0.392578 31.0967 4.11442 35.6037 9.67409 35.6037V33.6037ZM17.7408 25.537C17.7408 29.9921 14.1292 33.6037 9.67409 33.6037V35.6037C15.2338 35.6037 19.7408 31.0967 19.7408 25.537H17.7408ZM13.7066 18.5488C16.1204 19.9451 17.7408 22.5524 17.7408 25.537H19.7408C19.7408 21.8096 17.7144 18.5566 14.708 16.8176L13.7066 18.5488ZM13.2073 4.6037V17.6832H15.2073V4.6037H13.2073ZM10.2073 1.6037C11.8641 1.6037 13.2073 2.94684 13.2073 4.6037H15.2073C15.2073 1.84228 12.9687 -0.396301 10.2073 -0.396301V1.6037ZM9.14062 1.6037H10.2073V-0.396301H9.14062V1.6037Z" fill="black" mask="url(#path-1-inside-1)"/>
<path fill-rule="evenodd" clip-rule="evenodd" d="M9.66842 14.2037C10.7581 18.861 12.0814 19.1018 14.3423 22.601C14.93 23.5101 15.3407 24.4772 15.3407 25.5869C15.3407 27.1283 14.7848 28.4497 13.6716 29.551C12.5543 30.6524 11.2227 31.2059 9.67119 31.2059C8.12384 31.2059 6.79497 30.6524 5.67766 29.551C4.56313 28.4497 4.00586 27.1283 4.00586 25.5869C4.00586 24.4717 4.42346 23.4976 5.01669 22.583C7.28171 19.0921 8.59952 18.8458 9.66842 14.2037ZM6.43544 24.1355C6.7521 24.1064 7.03142 24.3402 7.05908 24.6557C7.13099 25.4195 7.29831 26.1238 7.61773 26.7312C7.9261 27.3178 8.38519 27.8229 9.04893 28.2117C9.32272 28.3722 9.41399 28.725 9.25358 28.9976C9.09318 29.2716 8.74057 29.3629 8.46815 29.2024C7.6039 28.696 7.00515 28.0373 6.59999 27.2667C6.19207 26.4904 5.99709 25.627 5.91551 24.7595C5.88647 24.4454 6.12154 24.1645 6.43544 24.1355Z" fill="#3A4354"/>
</svg>
