<svg id="svg" xmlns="http://www.w3.org/2000/svg" xmlns:xlink="http://www.w3.org/1999/xlink" width="400" height="394.8387096774194" viewBox="0, 0, 400,394.8387096774194"><g id="svgg"><path id="path0" d="M47.300 32.079 C 34.739 37.651,33.548 42.360,33.548 86.480 L 33.548 126.849 41.092 134.392 L 48.635 141.935 110.625 141.935 C 172.416 141.935,172.639 141.915,179.856 135.713 L 187.097 129.491 187.916 88.207 L 188.736 46.923 181.036 38.300 L 173.336 29.677 114.410 29.063 C 68.311 28.582,53.702 29.239,47.300 32.079 M230.666 32.473 C 217.238 39.097,216.774 42.375,216.774 130.643 L 216.774 212.010 224.318 219.553 L 231.861 227.097 294.194 227.097 L 356.526 227.097 364.069 219.553 L 371.613 212.010 371.613 129.140 C 371.613 37.760,371.438 36.691,355.574 31.161 C 342.350 26.551,240.501 27.621,230.666 32.473 M47.373 172.881 C 33.862 178.334,33.548 180.536,33.548 270.108 L 33.548 353.261 39.772 360.501 L 45.996 367.742 106.002 368.525 C 194.994 369.686,188.387 377.593,188.387 269.927 C 188.387 185.138,187.750 180.537,175.110 174.000 C 166.997 169.805,57.376 168.845,47.373 172.881 M230.599 258.043 C 218.431 262.953,216.774 269.384,216.774 311.712 C 216.774 370.863,214.302 369.032,294.194 369.032 C 374.210 369.032,371.613 370.981,371.613 310.939 L 371.613 270.571 364.069 263.027 L 356.526 255.484 296.328 255.647 C 263.218 255.737,233.640 256.815,230.599 258.043 " stroke="none" fill="#000000" fill-rule="evenodd"></path></g></svg>