<svg width="109" height="154" viewBox="0 0 109 154" fill="none" xmlns="http://www.w3.org/2000/svg">
<path d="M93.1423 148.034L100.076 84.449C100.076 84.449 13.7423 85.2093 13.8673 87.4319C15.8507 123.202 56.4757 123.202 56.4757 123.202L61.434 148.043L93.1423 148.034Z" fill="#8596F0"/>
<path d="M98.0991 150.023C98.0991 152.22 96.3241 154 94.1324 154H59.4491C57.2574 154 55.4824 152.22 55.4824 150.023C55.4824 147.825 57.2574 146.046 59.4491 146.046H94.1324C96.3241 146.046 98.0991 147.825 98.0991 150.023Z" fill="#8596F0"/>
<path d="M88.4244 88.9525C88.5744 89.8549 88.6577 90.7824 88.6577 91.7098C88.6577 104.427 74.4744 114.729 56.9744 114.729C39.4744 114.729 25.291 104.427 25.291 91.7098C25.291 90.774 25.3743 89.8549 25.5243 88.9525H88.4244Z" fill="white"/>
<path d="M104.042 85.4432C104.042 87.6407 102.267 89.4121 100.075 89.4121H13.8671C11.6754 89.4121 9.90039 87.6324 9.90039 85.4432C9.90039 83.2457 11.6754 81.466 13.8671 81.466H100.075C102.267 81.466 104.042 83.2541 104.042 85.4432Z" fill="#FC755E"/>
<path d="M37.6582 61.5967L34.6832 63.5853L30.7165 61.5967L27.7415 63.5853L23.7832 61.5967L19.8165 63.5853L16.0915 61.5048L12.8832 63.5853L10.4082 61.9309V33.7812H40.1332V63.2594L37.6582 61.5967Z" fill="#B0B0B0"/>
<path d="M47.5663 20.2036H2.97461V26.1611H47.5663V20.2036Z" fill="#657C8B"/>
<path d="M40.1332 12.9176H10.4082V33.7813H40.1332V12.9176Z" fill="#8D8D8D"/>
<path d="M40.1332 15.9005H10.4082V23.8466H40.1332V15.9005Z" fill="#D3D3D3"/>
<path d="M34.6832 38.7444H10.4082V33.7812H40.1332L34.6832 38.7444Z" fill="#BCBEC0"/>
<path d="M45.584 26.6624C45.584 27.7569 46.4673 28.651 47.5673 28.651C48.659 28.651 49.5507 27.7569 49.5507 26.6624V19.7106C49.5507 18.616 48.6673 17.722 47.5673 17.722C46.4757 17.722 45.584 18.616 45.584 19.7106V26.6624Z" fill="#FCCE21"/>
<path d="M0 26.6624C0 27.7569 0.883333 28.651 1.98333 28.651C3.075 28.651 3.96667 27.7569 3.96667 26.6624V19.7106C3.96667 18.616 3.08333 17.722 1.98333 17.722C0.883333 17.722 0 18.6077 0 19.7022V26.6624Z" fill="#FCCE21"/>
<path d="M47.5664 21.365C47.5664 21.6407 47.7914 21.858 48.0581 21.858C48.3331 21.858 48.5581 21.6324 48.5581 21.365V19.3764C48.5581 19.1007 48.3331 18.8834 48.0581 18.8834C47.7831 18.8834 47.5664 19.109 47.5664 19.3764V21.365Z" fill="white"/>
<path d="M1.98242 21.365C1.98242 21.6407 2.20742 21.858 2.47409 21.858C2.74909 21.858 2.96576 21.6324 2.96576 21.365V19.3764C2.96576 19.1007 2.74076 18.8834 2.47409 18.8834C2.19909 18.8834 1.98242 19.109 1.98242 19.3764V21.365Z" fill="white"/>
<path d="M58.6074 149.647C58.6074 150.357 59.1824 150.925 59.8908 150.925H68.8491C69.5574 150.925 70.1241 150.349 70.1241 149.647C70.1241 148.937 69.5491 148.36 68.8491 148.36H59.8908C59.1824 148.36 58.6074 148.937 58.6074 149.647Z" fill="white"/>
<path d="M109.001 4.47019C109.001 1.99696 107.001 0 104.542 0C102.076 0 100.084 2.00532 100.084 4.47019V81.9673C100.084 84.4406 102.084 86.4375 104.542 86.4375C107.009 86.4375 109.001 84.4322 109.001 81.9673V4.47019Z" fill="#EA5A47"/>
</svg>
