<svg width="155" height="345" viewBox="0 0 155 345" fill="none" xmlns="http://www.w3.org/2000/svg">
<path fill-rule="evenodd" clip-rule="evenodd" d="M120.96 47.6174C120.96 71.1544 101.88 90.2348 78.343 90.2348C54.8061 90.2348 35.7256 71.1544 35.7256 47.6174C35.7256 24.0805 54.8061 5 78.343 5C101.88 5 120.96 24.0805 120.96 47.6174ZM94.9515 92.2583C113.061 85.5181 125.96 68.0742 125.96 47.6174C125.96 21.319 104.641 0 78.343 0C52.0447 0 30.7256 21.319 30.7256 47.6174C30.7256 67.333 42.7076 84.25 59.7869 91.4838C59.613 91.6014 59.4429 91.7254 59.2768 91.8557L32.3247 112.995C30.7066 114.264 29.5719 116.049 29.1095 118.053L0.231151 243.192C-0.660807 247.057 1.08295 251.05 4.52422 253.023L42.2864 274.674C43.219 275.208 43.7943 276.201 43.7943 277.276V335.655C43.7943 340.625 47.8237 344.655 52.7943 344.655H98.5304C103.501 344.655 107.53 340.625 107.53 335.655V281.164C107.53 280.006 108.197 278.951 109.243 278.454L148.997 259.571C152.869 257.732 154.906 253.417 153.867 249.259L149.701 232.598C149.299 230.99 147.671 230.013 146.063 230.415C144.456 230.817 143.479 232.446 143.88 234.053L148.046 250.714C148.392 252.1 147.713 253.538 146.422 254.151L106.669 273.034C103.53 274.525 101.53 277.689 101.53 281.164V335.655C101.53 337.312 100.187 338.655 98.5304 338.655H52.7943C51.1374 338.655 49.7943 337.312 49.7943 335.655V277.276C49.7943 274.051 48.0686 271.073 45.2707 269.469L7.50852 247.818C6.36143 247.161 5.78018 245.829 6.0775 244.541L34.9558 119.402C35.1099 118.734 35.4882 118.139 36.0276 117.716L62.9796 96.5768C63.5402 96.1371 64.239 95.9113 64.9509 95.9398L90.4077 96.9581C91.087 96.9852 91.7369 97.2423 92.2509 97.6871L120.091 121.78C120.585 122.207 120.926 122.785 121.062 123.424L132.547 177.404C132.892 179.025 134.485 180.059 136.106 179.714C137.727 179.369 138.761 177.776 138.416 176.155L126.931 122.175C126.523 120.257 125.5 118.525 124.017 117.243L96.1772 93.1501C95.7924 92.8171 95.3821 92.5192 94.9515 92.2583Z" fill="#EA6A47"/>
<rect x="140.727" y="189.88" width="23.2077" height="6.53837" rx="3.26919" transform="rotate(76.8311 140.727 189.88)" fill="#EA6A47" stroke="#EA6A47" stroke-linejoin="round"/>
<circle opacity="0.4" cx="78.1074" cy="47.5" r="38.5" fill="#EA6A47"/>
</svg>
