<svg id="svg" xmlns="http://www.w3.org/2000/svg" xmlns:xlink="http://www.w3.org/1999/xlink" width="400" height="400" viewBox="0, 0, 400,400">
<g id="svgg">
<path id="path0" d="M92.969 12.234 C 54.499 18.195,57.677 74.219,96.484 74.219 C 133.368 74.219,139.176 20.523,103.125 12.830 C 98.053 11.747,96.645 11.665,92.969 12.234 M315.293 13.745 C 281.411 24.539,289.044 74.185,324.609 74.339 C 357.576 74.480,367.449 29.342,337.516 15.335 C 331.290 12.421,321.620 11.730,315.293 13.745 M215.196 26.099 C 212.031 27.477,208.824 31.399,207.824 35.114 C 207.273 37.161,207.079 90.141,207.217 200.565 L 207.422 363.005 209.362 365.836 C 214.906 373.927,227.181 373.830,232.265 365.655 L 233.984 362.891 234.213 201.172 C 234.338 112.227,234.227 37.944,233.965 36.100 C 232.798 27.891,223.030 22.686,215.196 26.099 M63.267 84.404 C 47.344 88.186,42.450 95.447,27.486 137.500 C 21.905 153.184,13.403 176.914,8.593 190.234 C 0.397 212.929,-0.134 214.755,0.150 219.242 C 0.803 229.561,11.480 235.871,21.326 231.757 C 26.872 229.440,27.754 227.558,42.539 186.514 C 50.233 165.152,56.637 147.783,56.770 147.916 C 56.903 148.048,52.429 171.826,46.828 200.755 C 34.529 264.280,34.428 261.719,49.250 261.719 L 56.192 261.719 56.416 318.164 C 56.639 374.294,56.650 374.627,58.327 377.734 C 65.641 391.288,84.236 391.436,90.935 377.993 L 92.969 373.912 92.969 317.815 L 92.969 261.719 96.465 261.719 L 99.961 261.719 100.176 318.555 L 100.391 375.391 102.490 378.961 C 108.637 389.418,122.252 391.132,130.852 382.531 C 136.929 376.454,136.719 378.826,136.719 316.451 L 136.719 261.719 144.027 261.719 C 152.102 261.719,154.791 260.392,155.932 255.847 C 156.275 254.481,152.866 235.163,146.182 200.588 C 140.530 171.350,136.026 147.307,136.175 147.159 C 136.323 147.010,141.120 159.279,146.836 174.421 C 166.784 227.272,169.439 233.674,172.726 236.840 C 180.101 243.942,191.973 241.712,196.546 232.365 C 199.520 226.288,199.213 224.965,188.319 196.875 C 180.012 175.454,169.380 147.218,158.461 117.578 C 150.803 96.789,142.468 87.147,129.844 84.471 C 124.978 83.440,67.570 83.381,63.267 84.404 M277.344 84.486 C 262.719 86.902,250.635 99.446,248.474 114.453 C 246.766 126.320,247.439 231.870,249.246 235.604 C 253.467 244.323,265.483 246.380,273.105 239.688 C 278.158 235.251,278.125 235.682,278.125 174.641 C 278.125 117.718,278.195 116.406,281.238 116.406 C 284.491 116.406,284.375 111.617,284.375 245.473 C 284.375 386.018,283.977 376.198,289.915 382.162 C 300.188 392.479,317.603 387.082,320.302 372.745 C 320.800 370.097,321.094 342.356,321.094 297.940 L 321.094 227.344 324.192 227.344 L 327.291 227.344 327.512 300.586 C 327.725 370.692,327.798 373.956,329.217 376.813 C 335.034 388.527,349.669 391.170,358.701 382.138 C 364.406 376.434,364.053 385.441,364.058 245.145 C 364.062 123.433,364.122 117.992,365.472 117.269 C 369.202 115.273,369.114 114.023,369.531 175.166 L 369.922 232.422 371.658 235.668 C 377.303 246.225,393.099 246.402,398.422 235.968 C 400.197 232.489,400.913 124.033,399.229 113.672 C 396.829 98.902,384.189 86.479,369.380 84.338 C 363.040 83.421,283.011 83.550,277.344 84.486 " stroke="none" fill="#3a4354" fill-rule="evenodd">
</path>
</g>
</svg>