<svg width="19" height="28" viewBox="0 0 19 28" fill="none" xmlns="http://www.w3.org/2000/svg">
<g clip-path="url(#clip0)">
<path fill-rule="evenodd" clip-rule="evenodd" d="M9.59974 0.603699C11.3301 7.99969 13.4316 8.38202 17.022 13.9389C17.9552 15.3825 18.6074 16.9184 18.6074 18.6806C18.6074 21.1284 17.7247 23.2267 15.9569 24.9758C14.1826 26.7248 12.068 27.6037 9.60413 27.6037C7.14689 27.6037 5.0366 26.7248 3.2623 24.9758C1.49238 23.2267 0.607422 21.1284 0.607422 18.6806C0.607422 16.9096 1.27059 15.3627 2.21264 13.9103C5.80957 8.36664 7.90229 7.97552 9.59974 0.603699ZM4.46566 16.3757C4.96853 16.3295 5.41211 16.7009 5.45602 17.2018C5.57021 18.4147 5.83592 19.5331 6.34318 20.4977C6.83287 21.4294 7.56192 22.2314 8.61596 22.8488C9.05075 23.1037 9.19569 23.664 8.94096 24.0969C8.68623 24.5319 8.12627 24.6769 7.69367 24.4221C6.32122 23.6179 5.37038 22.572 4.72698 21.3481C4.07918 20.1154 3.76955 18.7443 3.63999 17.3666C3.59388 16.8679 3.96719 16.4218 4.46566 16.3757Z" fill="#42A5F5"/>
<path d="M2.60742 15.6037H13.6074V23.6037L6.10742 25.6037L2.60742 15.6037Z" fill="#42A5F5"/>
<path d="M5.99511 16.4991C5.99511 16.0499 6.12434 15.6991 6.38281 15.4468C6.64742 15.1883 6.98588 15.0591 7.39819 15.0591C7.8105 15.0591 8.14588 15.1883 8.40434 15.4468C8.66896 15.6991 8.80127 16.0499 8.80127 16.4991C8.80127 16.9483 8.66896 17.3022 8.40434 17.5606C8.14588 17.8191 7.8105 17.9483 7.39819 17.9483C6.98588 17.9483 6.64742 17.8191 6.38281 17.5606C6.12434 17.3022 5.99511 16.9483 5.99511 16.4991ZM11.6259 15.1791L7.94281 21.6037H6.90896L10.592 15.1791H11.6259ZM7.39819 15.696C7.0105 15.696 6.81665 15.9637 6.81665 16.4991C6.81665 17.0406 7.0105 17.3114 7.39819 17.3114C7.58281 17.3114 7.72435 17.2468 7.82281 17.1175C7.92742 16.9822 7.97973 16.776 7.97973 16.4991C7.97973 15.9637 7.78588 15.696 7.39819 15.696ZM9.75204 20.2745C9.75204 19.8252 9.88127 19.4745 10.1397 19.2222C10.4043 18.9637 10.7428 18.8345 11.1551 18.8345C11.5613 18.8345 11.8936 18.9637 12.152 19.2222C12.4167 19.4745 12.549 19.8252 12.549 20.2745C12.549 20.7237 12.4167 21.0775 12.152 21.336C11.8936 21.5945 11.5613 21.7237 11.1551 21.7237C10.7428 21.7237 10.4043 21.5945 10.1397 21.336C9.88127 21.0775 9.75204 20.7237 9.75204 20.2745ZM11.1459 19.4714C10.7582 19.4714 10.5643 19.7391 10.5643 20.2745C10.5643 20.8099 10.7582 21.0775 11.1459 21.0775C11.5336 21.0775 11.7274 20.8099 11.7274 20.2745C11.7274 19.7391 11.5336 19.4714 11.1459 19.4714Z" fill="white"/>
</g>
<defs>
<clipPath id="clip0">
<rect width="18" height="27" fill="white" transform="translate(0.607422 0.603699)"/>
</clipPath>
</defs>
</svg>
