<svg id="svg" xmlns="http://www.w3.org/2000/svg" xmlns:xlink="http://www.w3.org/1999/xlink" width="400" height="400" viewBox="0, 0, 400,400">
<g id="svgg"><path id="path0" d="M183.200 48.052 C 162.768 88.379,168.961 112.769,199.634 112.769 C 231.410 112.769,237.695 89.299,216.986 47.971 C 200.112 14.298,200.301 14.298,183.200 48.052 M132.290 76.108 C 80.126 87.881,58.648 114.350,83.531 136.198 C 125.902 173.400,274.098 173.400,316.469 136.198 C 341.565 114.163,319.790 87.736,266.906 76.045 C 240.963 70.310,239.997 70.434,240.015 79.500 L 240.030 87.000 256.515 91.542 C 306.785 105.394,301.227 133.696,246.000 145.096 C 147.147 165.502,54.210 114.623,146.500 90.624 L 160.000 87.114 160.000 79.557 C 160.000 70.476,158.224 70.255,132.290 76.108 M148.495 99.760 C 119.936 109.626,124.118 129.048,156.340 136.193 C 173.244 139.941,226.756 139.941,243.660 136.193 C 279.277 128.295,279.269 105.508,243.647 97.240 C 239.080 96.180,237.832 96.923,235.147 102.306 C 231.125 110.368,230.973 109.850,238.091 112.331 C 256.204 118.646,237.099 125.000,200.000 125.000 C 161.877 125.000,145.903 120.250,161.500 113.552 C 164.525 112.253,167.370 110.928,167.821 110.607 C 168.869 109.863,161.444 95.978,160.045 96.065 C 159.470 96.101,154.273 97.764,148.495 99.760 M19.550 135.019 C 8.227 141.369,7.102 154.877,13.989 201.796 C 24.637 274.345,36.627 296.447,85.500 333.627 L 102.000 346.180 102.000 359.845 C 102.000 378.671,100.856 378.191,144.260 377.546 L 181.000 377.000 180.900 344.000 C 180.706 279.891,173.456 260.108,132.891 213.000 C 124.366 203.100,113.886 190.362,109.601 184.693 C 100.759 172.994,95.033 170.679,85.150 174.809 C 64.992 183.231,68.055 203.882,93.876 233.645 C 102.496 243.580,107.875 251.440,107.221 253.145 C 100.806 269.862,61.412 216.267,62.055 191.697 C 62.955 157.296,38.344 124.479,19.550 135.019 M358.688 134.943 C 351.318 140.106,336.991 179.018,337.681 192.000 C 338.731 211.751,306.524 259.699,295.141 255.331 C 289.749 253.262,291.571 249.500,305.954 233.000 C 327.907 207.817,333.071 190.785,322.249 179.265 C 310.585 166.849,302.067 169.603,284.166 191.578 C 276.361 201.160,263.178 217.100,254.872 227.000 C 228.988 257.848,221.236 280.678,217.973 335.663 C 215.361 379.674,211.836 376.000,256.670 376.000 C 299.194 376.000,298.000 376.529,298.000 357.690 L 298.000 344.180 314.500 331.627 C 363.443 294.394,375.355 272.419,386.067 199.605 C 392.100 158.601,391.569 143.676,383.847 137.178 C 376.790 131.240,365.417 130.230,358.688 134.943 " stroke="none" fill="#3a4354" fill-rule="evenodd"></path></g></svg>