<?xml version="1.0" encoding="iso-8859-1"?>
<!-- Generator: Adobe Illustrator 19.0.0, SVG Export Plug-In . SVG Version: 6.00 Build 0)  -->
<svg xmlns="http://www.w3.org/2000/svg" xmlns:xlink="http://www.w3.org/1999/xlink" version="1.1" id="Layer_1" x="0px" y="0px" viewBox="0 0 512 512" style="enable-background:new 0 0 512 512;" xml:space="preserve" width="512" height="512">
<g>
	<polygon style="fill:#C5D3DD;" points="107.1,196 242.1,267.7 227.999,294.099 68.101,209.2 75,196 68.101,182.8 227.999,97.899    242.1,124.3  "/>
	<polygon style="fill:#9FACBA;" points="107.1,196 242.1,267.7 227.999,294.099 68.101,209.2 75,196  "/>
	<rect x="60" y="75" style="fill:#C5D3DD;" width="30" height="241"/>
	<rect x="75" y="75" style="fill:#9FACBA;" width="15" height="241"/>
	<rect x="45" y="301" style="fill:#DEECF1;" width="60" height="196"/>
	<rect x="75" y="301" style="fill:#C5D3DD;" width="30" height="196"/>
	<path style="fill:#84DBFF;" d="M75,0C50.099,0,30,20.099,30,45c0,24.899,20.099,45,45,45s45-20.101,45-45C120,20.099,99.901,0,75,0   z"/>
	<path style="fill:#84DBFF;" d="M75,90V0c24.901,0,45,20.099,45,45C120,69.899,99.901,90,75,90z"/>
	<rect y="482" style="fill:#7FE881;" width="150" height="30"/>
	<rect x="75" y="482" style="fill:#5BC980;" width="75" height="30"/>
	<path style="fill:#DEECF1;" d="M298.801,96.7v198.6l-36.601,5.099c-11.4,1.5-23.101-0.3-34.2-6.301   C198.9,278.8,180,240.099,180,196c0-44.101,18.9-82.8,47.999-98.101c10.801-5.7,22.5-7.8,33.9-6.301L298.801,96.7z"/>
	<path style="fill:#C5D3DD;" d="M180,196h118.801v99.3l-36.601,5.099c-11.4,1.5-23.101-0.3-34.2-6.301   C198.9,278.8,180,240.099,180,196z"/>
	<path style="fill:#84DBFF;" d="M362.999,106v180c0,0-60.298,8.699-64.199,9.3C281.4,269.799,270,229.9,270,196   s11.4-73.801,28.801-99.3C303.6,97.299,360,105.399,362.999,106z"/>
	<path style="fill:#84DBFF;" d="M270,196h92.999v90c0,0-60.298,8.699-64.199,9.3C281.4,269.799,270,229.9,270,196z"/>
	<path style="fill:#DEECF1;" d="M471.2,121.3V270.7c0,0-101.901,14.399-108.201,15.3C342.9,262.299,330,228.399,330,196   c0-32.401,12.9-66.301,32.999-90C369.901,106.899,467.901,120.7,471.2,121.3z"/>
	<path style="fill:#C5D3DD;" d="M471.2,196v74.7c0,0-101.901,14.399-108.201,15.3C342.9,262.299,330,228.399,330,196H471.2z"/>
	<path style="fill:#84DBFF;" d="M470.6,121.3L467,121c-25.499,0-45,32.1-45,75s19.501,75,45,75l3.9-0.3   C494.599,267.7,512,236.199,512,196C512,155.799,494.599,124.3,470.6,121.3z"/>
	<path style="fill:#84DBFF;" d="M512,196c0,40.199-17.401,71.7-41.1,74.7L467,271c-25.499,0-45-32.1-45-75H512z"/>
</g>















</svg>
